<mxfile host="app.diagrams.net" modified="2021-06-26T15:38:35.080Z" agent="5.0 (Windows NT 10.0; Win64; x64) AppleWebKit/537.36 (KHTML, like Gecko) Chrome/87.0.4280.88 Safari/537.36" etag="98P1IYcISKm0pCX4OWCM" version="14.7.3" type="github" pages="2">
  <diagram id="6-AozNQrYqEnT2Zlcfao" name="Page-1">
    <mxGraphModel dx="1038" dy="522" grid="1" gridSize="10" guides="1" tooltips="1" connect="1" arrows="1" fold="1" page="1" pageScale="1" pageWidth="850" pageHeight="1100" math="0" shadow="0">
      <root>
        <mxCell id="0" />
        <mxCell id="1" parent="0" />
        <mxCell id="FzGGxOdYf_7UcTrcDl80-1" value="Throwable" style="html=1;" vertex="1" parent="1">
          <mxGeometry x="310" y="150" width="110" height="50" as="geometry" />
        </mxCell>
        <mxCell id="FzGGxOdYf_7UcTrcDl80-2" value="Error" style="html=1;" vertex="1" parent="1">
          <mxGeometry x="200" y="270" width="110" height="50" as="geometry" />
        </mxCell>
        <mxCell id="FzGGxOdYf_7UcTrcDl80-3" value="Exception" style="html=1;" vertex="1" parent="1">
          <mxGeometry x="440" y="270" width="110" height="50" as="geometry" />
        </mxCell>
        <mxCell id="FzGGxOdYf_7UcTrcDl80-4" value="" style="endArrow=block;endFill=0;endSize=12;html=1;exitX=0.5;exitY=0;exitDx=0;exitDy=0;entryX=0.5;entryY=1;entryDx=0;entryDy=0;" edge="1" parent="1" source="FzGGxOdYf_7UcTrcDl80-2" target="FzGGxOdYf_7UcTrcDl80-1">
          <mxGeometry width="160" relative="1" as="geometry">
            <mxPoint x="340" y="300" as="sourcePoint" />
            <mxPoint x="500" y="300" as="targetPoint" />
          </mxGeometry>
        </mxCell>
        <mxCell id="FzGGxOdYf_7UcTrcDl80-5" value="" style="endArrow=block;endFill=0;endSize=12;html=1;entryX=0.5;entryY=1;entryDx=0;entryDy=0;" edge="1" parent="1" target="FzGGxOdYf_7UcTrcDl80-1">
          <mxGeometry width="160" relative="1" as="geometry">
            <mxPoint x="495" y="270" as="sourcePoint" />
            <mxPoint x="375" y="210" as="targetPoint" />
          </mxGeometry>
        </mxCell>
        <mxCell id="FzGGxOdYf_7UcTrcDl80-6" value="编译期异常" style="html=1;" vertex="1" parent="1">
          <mxGeometry x="340" y="380" width="110" height="50" as="geometry" />
        </mxCell>
        <mxCell id="FzGGxOdYf_7UcTrcDl80-7" value="RuntimeException" style="html=1;" vertex="1" parent="1">
          <mxGeometry x="580" y="380" width="110" height="50" as="geometry" />
        </mxCell>
        <mxCell id="FzGGxOdYf_7UcTrcDl80-8" value="" style="endArrow=block;endFill=0;endSize=12;html=1;exitX=0.5;exitY=0;exitDx=0;exitDy=0;entryX=0.5;entryY=1;entryDx=0;entryDy=0;" edge="1" parent="1" source="FzGGxOdYf_7UcTrcDl80-6" target="FzGGxOdYf_7UcTrcDl80-3">
          <mxGeometry width="160" relative="1" as="geometry">
            <mxPoint x="505" y="280" as="sourcePoint" />
            <mxPoint x="490" y="330" as="targetPoint" />
          </mxGeometry>
        </mxCell>
        <mxCell id="FzGGxOdYf_7UcTrcDl80-9" value="" style="endArrow=block;endFill=0;endSize=12;html=1;entryX=0.5;entryY=1;entryDx=0;entryDy=0;exitX=0.5;exitY=0;exitDx=0;exitDy=0;" edge="1" parent="1" source="FzGGxOdYf_7UcTrcDl80-7">
          <mxGeometry width="160" relative="1" as="geometry">
            <mxPoint x="630" y="390" as="sourcePoint" />
            <mxPoint x="500" y="320" as="targetPoint" />
          </mxGeometry>
        </mxCell>
      </root>
    </mxGraphModel>
  </diagram>
  <diagram id="dmUtB0RjLpA1cpi_gpcz" name="Page-2">
    <mxGraphModel dx="1038" dy="522" grid="1" gridSize="10" guides="1" tooltips="1" connect="1" arrows="1" fold="1" page="1" pageScale="1" pageWidth="850" pageHeight="1100" math="0" shadow="0">
      <root>
        <mxCell id="7fqA3O4qjcCdSVgUHn_2-0" />
        <mxCell id="7fqA3O4qjcCdSVgUHn_2-1" parent="7fqA3O4qjcCdSVgUHn_2-0" />
        <mxCell id="7fqA3O4qjcCdSVgUHn_2-2" value="main" style="html=1;" vertex="1" parent="7fqA3O4qjcCdSVgUHn_2-1">
          <mxGeometry x="240" y="130" width="110" height="50" as="geometry" />
        </mxCell>
        <mxCell id="7fqA3O4qjcCdSVgUHn_2-3" value="calculate" style="html=1;" vertex="1" parent="7fqA3O4qjcCdSVgUHn_2-1">
          <mxGeometry x="240" y="246" width="110" height="50" as="geometry" />
        </mxCell>
        <mxCell id="7fqA3O4qjcCdSVgUHn_2-4" value="divided" style="html=1;" vertex="1" parent="7fqA3O4qjcCdSVgUHn_2-1">
          <mxGeometry x="240" y="360" width="110" height="50" as="geometry" />
        </mxCell>
        <mxCell id="7fqA3O4qjcCdSVgUHn_2-5" value="调用" style="html=1;verticalAlign=bottom;endArrow=block;" edge="1" parent="7fqA3O4qjcCdSVgUHn_2-1">
          <mxGeometry x="0.2" width="80" relative="1" as="geometry">
            <mxPoint x="271" y="190" as="sourcePoint" />
            <mxPoint x="271" y="240" as="targetPoint" />
            <mxPoint as="offset" />
          </mxGeometry>
        </mxCell>
        <mxCell id="7fqA3O4qjcCdSVgUHn_2-6" value="调用" style="html=1;verticalAlign=bottom;endArrow=block;" edge="1" parent="7fqA3O4qjcCdSVgUHn_2-1">
          <mxGeometry x="0.2" width="80" relative="1" as="geometry">
            <mxPoint x="271" y="300" as="sourcePoint" />
            <mxPoint x="271" y="350" as="targetPoint" />
            <mxPoint as="offset" />
          </mxGeometry>
        </mxCell>
        <mxCell id="7fqA3O4qjcCdSVgUHn_2-7" value="异常上传" style="html=1;verticalAlign=bottom;endArrow=block;" edge="1" parent="7fqA3O4qjcCdSVgUHn_2-1">
          <mxGeometry x="-0.6" width="80" relative="1" as="geometry">
            <mxPoint x="326" y="350" as="sourcePoint" />
            <mxPoint x="326" y="300" as="targetPoint" />
            <mxPoint as="offset" />
          </mxGeometry>
        </mxCell>
        <mxCell id="7fqA3O4qjcCdSVgUHn_2-10" value="异常上传" style="html=1;verticalAlign=bottom;endArrow=block;" edge="1" parent="7fqA3O4qjcCdSVgUHn_2-1">
          <mxGeometry x="-0.6" width="80" relative="1" as="geometry">
            <mxPoint x="326" y="240" as="sourcePoint" />
            <mxPoint x="326" y="190" as="targetPoint" />
            <mxPoint as="offset" />
          </mxGeometry>
        </mxCell>
      </root>
    </mxGraphModel>
  </diagram>
</mxfile>
